<svg xmlns="http://www.w3.org/2000/svg" viewBox="0 0 220 220">
  <circle cx="110" cy="110" r="104" fill="#ecd9b3" stroke="#b9852f" stroke-width="6"/>
  <g fill="none" stroke="#3a2414" stroke-width="9" stroke-linecap="round" stroke-linejoin="round">
    <path d="M34 100 C 40 90, 46 90, 50 84 C 55 70, 62 62, 68 66 C 71 56, 80 52, 84 60 C 90 56, 98 60, 96 70 C 104 74, 106 84, 98 90 C 100 96, 96 104, 88 102 C 92 98, 100 92, 106 86 C 112 80, 118 78, 122 70 C 128 62, 136 60, 140 66"/>
    <path d="M92 88 L 90 150"/>
    <path d="M100 92 L 104 150"/>
    <path d="M42 92 L 38 150"/>
    <path d="M50 94 L 54 150"/>
  </g>
  <rect x="153" y="98" width="46" height="52" rx="9" fill="#b9541f" stroke="#5c2a10" stroke-width="4"/>
  <ellipse cx="176" cy="98" rx="23" ry="7" fill="#d4713a" stroke="#5c2a10" stroke-width="4"/>
</svg>
